<?xml version="1.0" encoding="UTF-8" standalone="no"?>
<!-- Generator: Adobe Illustrator 16.0.0, SVG Export Plug-In . SVG Version: 6.00 Build 0)  -->

<svg
   xmlns:dc="http://purl.org/dc/elements/1.1/"
   xmlns:cc="http://creativecommons.org/ns#"
   xmlns:rdf="http://www.w3.org/1999/02/22-rdf-syntax-ns#"
   xmlns:svg="http://www.w3.org/2000/svg"
   xmlns="http://www.w3.org/2000/svg"
   xmlns:sodipodi="http://sodipodi.sourceforge.net/DTD/sodipodi-0.dtd"
   xmlns:inkscape="http://www.inkscape.org/namespaces/inkscape"
   version="1.1"
   id="Capa_1"
   x="0px"
   y="0px"
   width="943.179px"
   height="943.179px"
   viewBox="0 0 943.179 943.179"
   style="enable-background:new 0 0 943.179 943.179;"
   xml:space="preserve"
   inkscape:version="0.91 r13725"
   sodipodi:docname="pass_plane.svg"><metadata
     id="metadata45"><rdf:RDF><cc:Work
         rdf:about=""><dc:format>image/svg+xml</dc:format><dc:type
           rdf:resource="http://purl.org/dc/dcmitype/StillImage" /></cc:Work></rdf:RDF></metadata><defs
     id="defs43" /><sodipodi:namedview
     pagecolor="#ffffff"
     bordercolor="#666666"
     borderopacity="1"
     objecttolerance="10"
     gridtolerance="10"
     guidetolerance="10"
     inkscape:pageopacity="0"
     inkscape:pageshadow="2"
     inkscape:window-width="1855"
     inkscape:window-height="1056"
     id="namedview41"
     showgrid="false"
     inkscape:zoom="0.25021761"
     inkscape:cx="471.58951"
     inkscape:cy="-167.85389"
     inkscape:window-x="65"
     inkscape:window-y="24"
     inkscape:window-maximized="1"
     inkscape:current-layer="Capa_1" /><g
     id="g3"
     style="stroke:#4d4d4d;stroke-opacity:1"><g
       id="g5"
       style="stroke:#4d4d4d;stroke-opacity:1"><path
         d="M792.16,79.479c-43.4,1.1-83.8-23.5-102.7-62.6c-6.2-12.7-20.3-19.4-34-16l-150.7,36.5l398.101,398.1l-80.8-333.1    C818.66,88.679,806.26,79.079,792.16,79.479z"
         id="path7"
         style="stroke:#4d4d4d;stroke-opacity:1" /><path
         d="M930.76,539.379c7.601-11.9,6-27.5-4-37.5l-10.399-10.4l-445.7-445.799l-21.6-21.6c-5.801-5.8-13.5-8.8-21.2-8.8    c-5.601,0-11.2,1.6-16.2,4.8c-18.3,11.8-39.2,17.6-60.1,17.6c-20.9,0-41.9-5.9-60.101-17.6c-5-3.2-10.6-4.8-16.2-4.8    c-7.7,0-15.4,3-21.2,8.8l-237.6,237.4c-10,10-11.7,25.6-4,37.4c23.5,36.5,23.5,83.8,0,120.3c-7.6,11.9-6,27.4,4,37.4l346,346    l131.799,131.8c5.801,5.8,13.5,8.8,21.2,8.8c5.601,0,11.2-1.6,16.2-4.8c18.3-11.8,39.2-17.601,60.1-17.601    c20.9,0,41.9,5.9,60.101,17.601c5,3.2,10.6,4.8,16.2,4.8c7.699,0,15.399-3,21.199-8.8l237.4-237.4c10-10,11.6-25.7,3.9-37.6    c-22.7-35.4-23.301-80.9-1.9-116.8C929.46,541.479,930.16,540.479,930.76,539.379z M695.061,402.279l-179.801,80.6l49.9,49.899    h89.1c2.7,0,5.2,1.101,7.101,2.9l13.3,13.3c5,5,3.4,13.5-3.1,16.3l-79.601,34.101l-34.3,79.6c-2.8,6.5-11.3,8.101-16.3,3.101    l-13.3-13.301c-1.9-1.899-2.9-4.399-2.9-7.1v-89.1l-49.9-49.9l-80.599,179.9c-2.9,6.399-11.2,7.899-16.2,3l-19.6-19.601    c-2.2-2.2-3.2-5.2-2.9-8.3l29.4-244.799l-72.5-72.5c-0.8-0.8-1.5-1.8-2-2.9l-21.601-47.4c-3.8-8.4,4.801-17.1,13.2-13.2l47.4,21.6    c1.1,0.5,2.1,1.2,2.899,2l72.5,72.5l244.8-29.4c3-0.4,6.1,0.7,8.3,2.9l19.6,19.6C702.96,390.979,701.46,399.379,695.061,402.279z"
         id="path9"
         style="stroke:#4d4d4d;stroke-opacity:1" /></g></g><g
     id="g11" /><g
     id="g13" /><g
     id="g15" /><g
     id="g17" /><g
     id="g19" /><g
     id="g21" /><g
     id="g23" /><g
     id="g25" /><g
     id="g27" /><g
     id="g29" /><g
     id="g31" /><g
     id="g33" /><g
     id="g35" /><g
     id="g37" /><g
     id="g39" /></svg>