<?xml version="1.0" encoding="UTF-8" standalone="no"?>
<!-- Generator: Adobe Illustrator 18.1.1, SVG Export Plug-In . SVG Version: 6.00 Build 0)  -->

<svg
   xmlns:dc="http://purl.org/dc/elements/1.1/"
   xmlns:cc="http://creativecommons.org/ns#"
   xmlns:rdf="http://www.w3.org/1999/02/22-rdf-syntax-ns#"
   xmlns:svg="http://www.w3.org/2000/svg"
   xmlns="http://www.w3.org/2000/svg"
   xmlns:sodipodi="http://sodipodi.sourceforge.net/DTD/sodipodi-0.dtd"
   xmlns:inkscape="http://www.inkscape.org/namespaces/inkscape"
   version="1.1"
   id="Capa_1"
   x="0px"
   y="0px"
   viewBox="0 0 53.331 53.331"
   style="enable-background:new 0 0 53.331 53.331;"
   xml:space="preserve"
   inkscape:version="0.91 r13725"
   sodipodi:docname="small_plane.svg"><metadata
     id="metadata77"><rdf:RDF><cc:Work
         rdf:about=""><dc:format>image/svg+xml</dc:format><dc:type
           rdf:resource="http://purl.org/dc/dcmitype/StillImage" /></cc:Work></rdf:RDF></metadata><defs
     id="defs75" /><sodipodi:namedview
     pagecolor="#ffffff"
     bordercolor="#666666"
     borderopacity="1"
     objecttolerance="10"
     gridtolerance="10"
     guidetolerance="10"
     inkscape:pageopacity="0"
     inkscape:pageshadow="2"
     inkscape:window-width="1855"
     inkscape:window-height="1056"
     id="namedview73"
     showgrid="false"
     inkscape:zoom="4.4251935"
     inkscape:cx="-11.298941"
     inkscape:cy="26.665501"
     inkscape:window-x="65"
     inkscape:window-y="24"
     inkscape:window-maximized="1"
     inkscape:current-layer="Capa_1" /><g
     id="g3"
     style="fill:#4d4d4d;fill-opacity:1"
     transform="matrix(-1,0,0,1,53.330636,0)"><g
       id="g5"
       style="fill:#4d4d4d;fill-opacity:1"><path
         d="m 14.307,32.802 c -1.815,0 -3.286,1.473 -3.286,3.285 0,1.813 1.471,3.282 3.286,3.282 1.812,0 3.282,-1.47 3.282,-3.282 0,-1.812 -1.471,-3.285 -3.282,-3.285 z"
         id="path7"
         style="fill:#4d4d4d;fill-opacity:1"
         inkscape:connector-curvature="0" /><path
         d="m 52.18,14.802 c -2.093,-0.414 -7.572,0.945 -7.989,3.043 l -0.445,2.238 C 42.85,19.671 41.858,19.436 40.808,19.436 l -15.988,0 c -0.144,0.409 -0.378,0.776 -0.679,1.077 -0.068,-1.449 -0.48,-2.566 -0.983,-2.566 -0.413,0 -0.766,0.76 -0.918,1.838 l -2.812,-0.73 c -0.11,-0.028 -0.218,-0.024 -0.323,0 -0.236,-0.434 -0.555,-0.69 -0.852,-0.639 -0.457,0.082 -0.701,0.868 -0.564,1.777 C 17.52,19.964 17.384,19.71 17.29,19.436 l -8.378,0 c -3.405,0 -6.245,-0.563 -6.896,1.913 -0.062,-0.006 -0.12,-0.02 -0.182,-0.02 -0.235,0 -0.456,0.051 -0.662,0.129 l 0,-6.91 C 1.173,14.223 0.908,13.962 0.584,13.962 0.264,13.962 0,14.223 0,14.548 l 0,18.761 c 0,0.324 0.264,0.585 0.584,0.585 0.324,0 0.589,-0.261 0.589,-0.585 l 0,-8.438 C 1.379,24.951 1.6,25 1.835,25 c 0.041,0 0.08,-0.012 0.121,-0.016 0.299,2.879 1.705,5.301 8.362,6.411 0.72,0.121 1.593,0.185 2.581,0.199 l -0.003,0.004 c 0.705,0 11.024,2.378 15.948,1.202 4.926,-1.17 0,-1.202 0,-1.202 0,0 -4.215,0.153 -7.986,-0.498 9.344,-1.035 21.08,-3.394 25.339,-4.281 l 0.854,0.967 c -0.091,0.167 -0.146,0.357 -0.146,0.562 0,0.646 0.524,1.174 1.171,1.174 0.648,0 1.174,-0.525 1.174,-1.174 0,-0.649 -0.524,-1.172 -1.174,-1.172 l 0,0 -0.56,-0.635 c 0.208,-0.046 0.326,-0.07 0.326,-0.07 0,-0.086 2.857,-1.686 3.185,-3.32 l 1.505,-3.797 c 0.417,-2.097 1.744,-4.135 -0.352,-4.552 z m -30.014,6.529 -2.225,0 c -0.197,0 -0.384,-0.028 -0.566,-0.065 0.066,-0.218 0.099,-0.479 0.092,-0.771 l 2.703,0.703 c 10e-4,0.044 0.003,0.088 0.004,0.13 -0.003,0 -0.005,0.003 -0.008,0.003 z"
         id="path9"
         style="fill:#4d4d4d;fill-opacity:1"
         inkscape:connector-curvature="0" /><circle
         cx="22.162001"
         cy="15.954"
         r="1.992"
         id="circle11"
         style="fill:#4d4d4d;fill-opacity:1" /></g><g
       id="g13"
       style="fill:#4d4d4d;fill-opacity:1" /><g
       id="g15"
       style="fill:#4d4d4d;fill-opacity:1" /><g
       id="g17"
       style="fill:#4d4d4d;fill-opacity:1" /><g
       id="g19"
       style="fill:#4d4d4d;fill-opacity:1" /><g
       id="g21"
       style="fill:#4d4d4d;fill-opacity:1" /><g
       id="g23"
       style="fill:#4d4d4d;fill-opacity:1" /><g
       id="g25"
       style="fill:#4d4d4d;fill-opacity:1" /><g
       id="g27"
       style="fill:#4d4d4d;fill-opacity:1" /><g
       id="g29"
       style="fill:#4d4d4d;fill-opacity:1" /><g
       id="g31"
       style="fill:#4d4d4d;fill-opacity:1" /><g
       id="g33"
       style="fill:#4d4d4d;fill-opacity:1" /><g
       id="g35"
       style="fill:#4d4d4d;fill-opacity:1" /><g
       id="g37"
       style="fill:#4d4d4d;fill-opacity:1" /><g
       id="g39"
       style="fill:#4d4d4d;fill-opacity:1" /><g
       id="g41"
       style="fill:#4d4d4d;fill-opacity:1" /></g><g
     id="g43" /><g
     id="g45" /><g
     id="g47" /><g
     id="g49" /><g
     id="g51" /><g
     id="g53" /><g
     id="g55" /><g
     id="g57" /><g
     id="g59" /><g
     id="g61" /><g
     id="g63" /><g
     id="g65" /><g
     id="g67" /><g
     id="g69" /><g
     id="g71" /></svg>