<?xml version="1.0" encoding="UTF-8" standalone="no"?>
<!-- Generator: Adobe Illustrator 16.0.0, SVG Export Plug-In . SVG Version: 6.00 Build 0)  -->

<svg
   xmlns:dc="http://purl.org/dc/elements/1.1/"
   xmlns:cc="http://creativecommons.org/ns#"
   xmlns:rdf="http://www.w3.org/1999/02/22-rdf-syntax-ns#"
   xmlns:svg="http://www.w3.org/2000/svg"
   xmlns="http://www.w3.org/2000/svg"
   xmlns:sodipodi="http://sodipodi.sourceforge.net/DTD/sodipodi-0.dtd"
   xmlns:inkscape="http://www.inkscape.org/namespaces/inkscape"
   version="1.1"
   id="Capa_1"
   x="0px"
   y="0px"
   width="612px"
   height="612px"
   viewBox="0 0 612 612"
   style="enable-background:new 0 0 612 612;"
   xml:space="preserve"
   inkscape:version="0.91 r13725"
   sodipodi:docname="left-arrow19.svg"><metadata
     id="metadata46"><rdf:RDF><cc:Work
         rdf:about=""><dc:format>image/svg+xml</dc:format><dc:type
           rdf:resource="http://purl.org/dc/dcmitype/StillImage" /><dc:title></dc:title></cc:Work></rdf:RDF></metadata><defs
     id="defs44" /><sodipodi:namedview
     pagecolor="#ffffff"
     bordercolor="#666666"
     borderopacity="1"
     objecttolerance="10"
     gridtolerance="10"
     guidetolerance="10"
     inkscape:pageopacity="0"
     inkscape:pageshadow="2"
     inkscape:window-width="1855"
     inkscape:window-height="1056"
     id="namedview42"
     showgrid="false"
     inkscape:zoom="0.38562092"
     inkscape:cx="306"
     inkscape:cy="306"
     inkscape:window-x="65"
     inkscape:window-y="24"
     inkscape:window-maximized="1"
     inkscape:current-layer="Capa_1" /><g
     id="g3"
     transform="matrix(0,-1,1,0,0,612)"
     style="fill:#ffffff"><g
       id="g5"
       style="fill:#ffffff"><g
         id="West"
         style="fill:#ffffff"><g
           id="g8"
           style="fill:#ffffff"><path
             d="m 421.133,267.75 -133.168,0 0.803,-4.973 42.61,-43.012 c 13.426,-13.56 16.696,-35.267 5.604,-50.796 -14.096,-19.718 -41.482,-21.343 -57.796,-4.877 L 164.131,280.258 c -7.134,7.172 -11.131,16.906 -11.131,27.1 0,10.175 3.997,19.908 11.112,27.101 l 114.75,113.469 c 14.822,14.976 38.842,14.976 53.666,0 14.841,-14.975 14.841,-39.226 0,-54.182 l -50.358,-49.496 138.962,0 c 20.923,0 37.867,-16.944 37.867,-37.868 l 0,-0.765 C 459,284.714 442.036,267.75 421.133,267.75 Z M 306,0 C 136.992,0 0,136.992 0,306 0,475.008 136.992,612 306,612 475.008,612 612,475.008 612,306 612,136.992 475.008,0 306,0 Z m 0,535.5 C 179.45,535.5 76.5,432.55 76.5,306 76.5,179.45 179.45,76.5 306,76.5 432.55,76.5 535.5,179.45 535.5,306 535.5,432.55 432.55,535.5 306,535.5 Z"
             id="path10"
             inkscape:connector-curvature="0"
             style="fill:#ffffff" /></g></g></g></g><g
     id="g12" /><g
     id="g14" /><g
     id="g16" /><g
     id="g18" /><g
     id="g20" /><g
     id="g22" /><g
     id="g24" /><g
     id="g26" /><g
     id="g28" /><g
     id="g30" /><g
     id="g32" /><g
     id="g34" /><g
     id="g36" /><g
     id="g38" /><g
     id="g40" /></svg>