<?xml version="1.0" encoding="UTF-8" standalone="no"?>
<!-- Generator: Adobe Illustrator 18.1.1, SVG Export Plug-In . SVG Version: 6.00 Build 0)  -->

<svg
   xmlns:dc="http://purl.org/dc/elements/1.1/"
   xmlns:cc="http://creativecommons.org/ns#"
   xmlns:rdf="http://www.w3.org/1999/02/22-rdf-syntax-ns#"
   xmlns:svg="http://www.w3.org/2000/svg"
   xmlns="http://www.w3.org/2000/svg"
   xmlns:sodipodi="http://sodipodi.sourceforge.net/DTD/sodipodi-0.dtd"
   xmlns:inkscape="http://www.inkscape.org/namespaces/inkscape"
   version="1.1"
   id="Capa_1"
   x="0px"
   y="0px"
   viewBox="0 0 612.001 612.001"
   style="enable-background:new 0 0 612.001 612.001;"
   xml:space="preserve"
   inkscape:version="0.91 r13725"
   sodipodi:docname="side_plane.svg"><metadata
     id="metadata45"><rdf:RDF><cc:Work
         rdf:about=""><dc:format>image/svg+xml</dc:format><dc:type
           rdf:resource="http://purl.org/dc/dcmitype/StillImage" /></cc:Work></rdf:RDF></metadata><defs
     id="defs43" /><sodipodi:namedview
     pagecolor="#ffffff"
     bordercolor="#666666"
     borderopacity="1"
     objecttolerance="10"
     gridtolerance="10"
     guidetolerance="10"
     inkscape:pageopacity="0"
     inkscape:pageshadow="2"
     inkscape:window-width="1855"
     inkscape:window-height="1056"
     id="namedview41"
     showgrid="false"
     inkscape:zoom="0.3856203"
     inkscape:cx="306.00049"
     inkscape:cy="306.00049"
     inkscape:window-x="65"
     inkscape:window-y="24"
     inkscape:window-maximized="1"
     inkscape:current-layer="Capa_1" /><g
     id="g3"
     style="fill:#4d4d4d;fill-opacity:1"><g
       id="g5"
       style="fill:#4d4d4d;fill-opacity:1"><path
         d="M374.778,173.493l-118.823-6.317c-1.379-0.074-2.767,0.236-3.987,0.894l-65.454,35.305    c-1.988,1.073-3.394,2.982-3.826,5.2c-0.433,2.219,0.152,4.516,1.591,6.257l33.672,40.733c0.327-0.247,0.661-0.486,1.036-0.683    L374.778,173.493z"
         id="path7"
         style="fill:#4d4d4d;fill-opacity:1" /><path
         d="M609.246,131.32c-0.059-0.126-0.12-0.251-0.188-0.373c-4.695-8.796-15.308-19.28-39.184-19.28    c-25.109,0-52.433,11.402-53.584,11.888c-66.229,26.386-377.957,190.42-377.957,190.42l-74.648-40.22    c-2.208-1.189-4.857-1.206-7.076-0.047L4.055,301.156c-2.217,1.156-3.716,3.337-4.005,5.821c-0.286,2.484,0.67,4.949,2.562,6.585    l128.431,111.028c2.347,2.024,5.688,2.416,8.432,0.981l125.416-65.436l18.977,133.711c0.346,2.444,1.865,4.564,4.067,5.676    c1.072,0.542,2.241,0.813,3.409,0.813c1.23,0,2.461-0.301,3.576-0.9c13.331-7.169,21.652-11.707,29.697-16.098    c8.197-4.473,16.674-9.099,30.389-16.467c1.468-0.787,2.631-2.038,3.314-3.555l89.258-198.554l91.751-47.902    C582.228,195.076,623.122,161.163,609.246,131.32z"
         id="path9"
         style="fill:#4d4d4d;fill-opacity:1" /></g></g><g
     id="g11" /><g
     id="g13" /><g
     id="g15" /><g
     id="g17" /><g
     id="g19" /><g
     id="g21" /><g
     id="g23" /><g
     id="g25" /><g
     id="g27" /><g
     id="g29" /><g
     id="g31" /><g
     id="g33" /><g
     id="g35" /><g
     id="g37" /><g
     id="g39" /></svg>